<svg width="22" height="22" viewBox="0 0 22 22" fill="none" xmlns="http://www.w3.org/2000/svg">
<path d="M5.5 19.25C5.5 17.7375 4.2625 16.5 2.75 16.5C1.2375 16.5 0 17.7375 0 19.25C0 20.7625 1.2375 22 2.75 22C4.2625 22 5.5 20.7625 5.5 19.25Z" fill="white"/>
<path d="M5.5 2.75C5.5 1.2375 4.2625 0 2.75 0C1.2375 0 0 1.2375 0 2.75C0 4.2625 1.2375 5.5 2.75 5.5C4.2625 5.5 5.5 4.2625 5.5 2.75Z" fill="white"/>
<path d="M22 19.25C22 17.7375 20.7625 16.5 19.25 16.5C17.7375 16.5 16.5 17.7375 16.5 19.25C16.5 20.7625 17.7375 22 19.25 22C20.7625 22 22 20.7625 22 19.25Z" fill="white"/>
<path d="M22 2.75C22 1.2375 20.7625 0 19.25 0C17.7375 0 16.5 1.2375 16.5 2.75C16.5 4.2625 17.7375 5.5 19.25 5.5C20.7625 5.5 22 4.2625 22 2.75Z" fill="white"/>
</svg>
