<svg width="71" height="64" viewBox="0 0 71 64" fill="none" xmlns="http://www.w3.org/2000/svg">
<g filter="url(#filter0_d)">
<path d="M5.63303 58.9726C5.8516 59.0289 6.08381 58.9978 6.27932 58.8859C6.47484 58.7741 6.6179 58.5906 6.67751 58.3751C8.43538 51.8893 15.5795 50.2084 19.8496 49.2025C20.9197 48.951 21.7645 48.7519 22.314 48.5173C27.178 46.4296 28.7635 43.0711 29.238 40.6205C29.2662 40.4747 29.255 40.3242 29.2056 40.184C29.1561 40.0439 29.0702 39.9191 28.9564 39.8223C26.4237 37.6603 24.2869 34.4149 22.9387 30.6817C22.9006 30.5746 22.8408 30.4764 22.7629 30.3931C20.9794 28.4759 19.9554 26.4489 19.9554 24.8338C19.9554 23.8904 20.3155 23.2575 21.1262 22.7799C21.2476 22.7081 21.3491 22.6076 21.4215 22.4874C21.4939 22.3672 21.5349 22.2311 21.5409 22.0913C21.9181 13.4942 28.1099 6.72651 35.7046 6.68263L35.8872 6.69445C43.5194 6.79909 49.672 13.7119 49.8921 22.4305C49.8952 22.5497 49.9239 22.6669 49.9763 22.7742C50.0286 22.8816 50.1035 22.9767 50.1959 23.0533C50.7301 23.5005 50.9793 24.0676 50.9793 24.8372C50.9793 26.189 50.2505 27.8514 48.9296 29.5155C48.8666 29.5956 48.8181 29.6858 48.7862 29.7822C47.4209 34.0622 44.9701 37.8409 42.0653 40.1531C41.945 40.2492 41.8532 40.3757 41.7997 40.5192C41.7463 40.6627 41.7331 40.8179 41.7615 40.9682C42.236 43.4171 43.8215 46.7739 48.6855 48.8649C49.2607 49.1113 50.1532 49.3037 51.2848 49.5451C55.5122 50.4497 62.5863 51.9669 64.322 58.3751C64.3512 58.4822 64.4013 58.5825 64.4697 58.6704C64.538 58.7582 64.6232 58.8319 64.7203 58.8873C64.8175 58.9426 64.9247 58.9784 65.0359 58.9928C65.147 59.0071 65.26 58.9997 65.3682 58.9709C65.4765 58.9421 65.5779 58.8925 65.6668 58.8249C65.7556 58.7573 65.8302 58.6731 65.8861 58.577C65.9421 58.4809 65.9783 58.3749 65.9928 58.265C66.0073 58.155 65.9998 58.0434 65.9707 57.9363C63.9653 50.5324 55.9508 48.816 51.6466 47.8945C50.6482 47.6802 49.7863 47.4962 49.3665 47.314C46.1921 45.9503 44.2362 43.8727 43.545 41.1285C46.4924 38.6257 48.9586 34.7642 50.3683 30.4336C51.865 28.5096 52.6876 26.5283 52.6876 24.8355C52.6876 23.7064 52.319 22.7647 51.5886 22.0289C51.1824 12.571 44.3574 5.1232 35.8872 5.00338L35.6329 5C27.3163 5.04388 20.4623 12.2959 19.8633 21.5901C18.7949 22.3664 18.2522 23.455 18.2522 24.8372C18.2522 26.8337 19.3939 29.2218 21.3924 31.4125C22.7731 35.1642 24.9133 38.4603 27.4613 40.7674C26.7736 43.5217 24.816 45.606 21.6348 46.9713C21.2235 47.1486 20.4043 47.3427 19.4554 47.5654C15.1187 48.5848 7.04957 50.4834 5.02887 57.9397C4.97051 58.1559 5.00138 58.3862 5.11467 58.5798C5.22797 58.7735 5.41442 58.9148 5.63303 58.9726Z" fill="#F4F4F4"/>
</g>
<defs>
<filter id="filter0_d" x="0" y="0" width="71" height="64" filterUnits="userSpaceOnUse" color-interpolation-filters="sRGB">
<feFlood flood-opacity="0" result="BackgroundImageFix"/>
<feColorMatrix in="SourceAlpha" type="matrix" values="0 0 0 0 0 0 0 0 0 0 0 0 0 0 0 0 0 0 127 0"/>
<feOffset/>
<feGaussianBlur stdDeviation="2.5"/>
<feColorMatrix type="matrix" values="0 0 0 0 1 0 0 0 0 1 0 0 0 0 1 0 0 0 0.25 0"/>
<feBlend mode="normal" in2="BackgroundImageFix" result="effect1_dropShadow"/>
<feBlend mode="normal" in="SourceGraphic" in2="effect1_dropShadow" result="shape"/>
</filter>
</defs>
</svg>
