<svg width="32" height="29" viewBox="0 0 32 29" fill="none" xmlns="http://www.w3.org/2000/svg">
<path d="M20 0C17.8067 0 16 1.78614 16 3.95455H8V19.7727H32V3.95455H24C24 1.78614 22.1933 0 20 0ZM0 1.31818V3.95455H1.33333C2.07333 3.95455 2.66667 4.54114 2.66667 5.27273V19.7727C2.66667 22.6859 5.05333 25.0455 8 25.0455H32V22.4091H8C6.412 22.4091 5.33333 21.3427 5.33333 19.7727V5.27273C5.33333 3.10432 3.52667 1.31818 1.33333 1.31818H0ZM27.3333 25.0455C26.8029 25.0455 26.2942 25.2538 25.9191 25.6246C25.544 25.9954 25.3333 26.4983 25.3333 27.0227C25.3333 27.5471 25.544 28.0501 25.9191 28.4209C26.2942 28.7917 26.8029 29 27.3333 29C27.8638 29 28.3725 28.7917 28.7475 28.4209C29.1226 28.0501 29.3333 27.5471 29.3333 27.0227C29.3333 26.4983 29.1226 25.9954 28.7475 25.6246C28.3725 25.2538 27.8638 25.0455 27.3333 25.0455ZM11.3333 25.0455C10.8029 25.0455 10.2942 25.2538 9.91912 25.6246C9.54405 25.9954 9.33333 26.4983 9.33333 27.0227C9.33333 27.5471 9.54405 28.0501 9.91912 28.4209C10.2942 28.7917 10.8029 29 11.3333 29C11.8638 29 12.3725 28.7917 12.7475 28.4209C13.1226 28.0501 13.3333 27.5471 13.3333 27.0227C13.3333 26.4983 13.1226 25.9954 12.7475 25.6246C12.3725 25.2538 11.8638 25.0455 11.3333 25.0455ZM20 2.63636C20.74 2.63636 21.3333 3.22295 21.3333 3.95455H18.6667C18.6667 3.22295 19.26 2.63636 20 2.63636ZM10.6667 6.59091H29.3333V17.1364H10.6667V6.59091Z" fill="white"/>
</svg>
