<svg width="46" height="46" viewBox="0 0 46 46" fill="none" xmlns="http://www.w3.org/2000/svg">
<path d="M4.38191 0L3.3951 0.931057L0.930718 3.39634L0 4.38351L0.711622 5.53374L4.38191 11.6707L4.87444 12.5474H10.0258L17.0369 19.5066C10.7725 25.8013 2.80267 33.8004 2.52223 34.0827C-0.224354 36.8285 -0.229612 41.3277 2.57481 43.9456C5.31438 46.6493 9.77867 46.7195 12.3815 43.9456L12.4341 43.8895L23.2241 33.0411L34.0702 43.9438L34.2332 44.0543C36.9851 46.6493 41.3617 46.6844 43.9295 43.9438V43.8912H43.9821C46.6674 41.1436 46.6954 36.6777 43.9295 34.0809L43.8735 34.0283L34.7275 24.9317C40.8815 24.3565 45.7016 19.1577 45.791 12.877H45.8453C45.8523 12.8419 45.8453 12.8016 45.8453 12.7665V12.7122C46.0171 10.6852 45.5789 8.74598 44.5307 7.06797L43.3283 5.20761L35.1657 13.3715L32.7013 10.7957L41.027 2.46704L38.6169 1.48163C37.0796 0.805059 35.4202 0.450032 33.7407 0.438351C27.0031 0.438351 21.4714 5.97209 21.4714 12.7122C21.4714 13.4451 21.6291 14.0816 21.7448 14.7391C20.9788 15.5071 20.4039 16.1366 19.4995 17.0413L12.5428 10.0821V4.87622L11.6664 4.38351L5.53173 0.711882L4.38191 0ZM33.7407 3.94516C33.9861 3.94516 34.1579 4.08894 34.398 4.10998L27.7708 10.7396L28.975 12.0003L33.9055 17.0957L35.1096 18.3564L42.0663 11.3971C42.1014 11.8004 42.3889 12.095 42.3398 12.5474V12.7122C42.3398 17.5411 38.4031 21.4792 33.576 21.4792C32.9327 21.4792 32.1527 21.3284 31.2763 21.1496L30.3439 20.9865L29.6866 21.644L9.91539 41.4785H9.8593V41.5346C8.61484 42.897 6.43615 42.9303 4.98486 41.4785V41.4242H4.92877C3.56688 40.1793 3.53357 37.9998 4.98486 36.548C5.64916 35.8817 18.5127 22.903 24.8121 16.603L25.5255 15.8911L25.2503 14.9039C25.084 14.1847 24.9923 13.4502 24.9769 12.7122C24.9769 7.88331 28.9136 3.94516 33.7407 3.94516ZM4.92877 4.38351L9.03725 6.90491V8.65831L8.65515 9.04055H6.90239L4.38191 4.93233L4.92877 4.38351ZM30.563 25.6979L41.4652 36.548V36.6023H41.5177C42.8814 37.8472 42.9147 40.0267 41.4652 41.4785H41.4091V41.5346C40.1646 42.897 37.9859 42.9303 36.5346 41.4785L25.6885 30.5759L30.563 25.6979Z" fill="white"/>
</svg>
