<svg width="125" height="164" viewBox="0 0 125 164" fill="none" xmlns="http://www.w3.org/2000/svg">
<path d="M125 87.2389C125 110.244 112.727 130.289 94.5455 141.222L97.7273 155.572C98.1818 157.622 97.7273 159.672 96.3636 161.494C95 163.089 93.1818 164 90.9091 164H75.6818C74.7727 164 74.0909 163.772 73.1818 163.544C72.5 163.772 71.5909 164 70.9091 164H54.3182C53.4091 164 52.7273 163.772 51.8182 163.544C51.1364 163.772 50.2273 164 49.5455 164H34.0909C32.0455 164 30 163.089 28.6364 161.494C27.5 159.672 27.0455 157.622 27.5 155.572L30.6818 141.222C12.2727 130.289 0 110.244 0 87.2389C0 56.2611 22.7273 30.2944 52.2727 25.5111L55.4545 5.92222C55.9091 2.50556 58.8636 0 62.2727 0C65.6818 0 68.4091 2.50556 69.0909 5.92222L72.0455 25.5111C102.045 30.0667 125 56.0333 125 87.2389ZM91.5909 69.0167H33.4091L43.8636 87.4667H81.3636L91.5909 69.0167ZM65 24.8278L62.2727 6.83333L59.5455 24.8278L57.9545 34.6222H66.5909L65 24.8278ZM71.1364 48.9722L76.3636 39.4056H48.6364L53.8636 48.9722L51.8182 64.4611H73.4091L71.3636 48.9722H71.1364ZM34.0909 157.167H49.5455L50.2273 148.739L55 92.7056H48.6364L37.0455 144.411L34.0909 157.167ZM55 149.422L54.3182 157.167H70.9091L70.2273 149.422L65.2273 92.7056H59.7727L55 149.422ZM75.6818 157.167H90.9091L88.1818 144.411L76.3636 92.7056H70.2273L75 148.739L75.6818 157.167Z" fill="white"/>
</svg>
