<svg width="57" height="57" viewBox="0 0 57 57" fill="none" xmlns="http://www.w3.org/2000/svg">
<path d="M46.3125 10.6875V3.5625H3.5625V21.375H19.5938V53.4375H53.4375V10.6875H46.3125ZM7.125 17.8125V7.125H42.75V10.6875H19.5938V17.8125H7.125ZM49.875 49.875H23.1562V14.25H49.875V49.875Z" fill="white"/>
<path d="M26.7188 19.5938H30.2812V23.1562H26.7188V19.5938Z" fill="white"/>
<path d="M33.8438 19.5938H46.3125V23.1562H33.8438V19.5938Z" fill="white"/>
<path d="M26.7188 30.2812H30.2812V33.8438H26.7188V30.2812Z" fill="white"/>
<path d="M33.8438 30.2812H46.3125V33.8438H33.8438V30.2812Z" fill="white"/>
<path d="M26.7188 40.9688H30.2812V44.5312H26.7188V40.9688Z" fill="white"/>
<path d="M33.8438 40.9688H46.3125V44.5312H33.8438V40.9688Z" fill="white"/>
</svg>
